<?xml version="1.0" encoding="utf-8" standalone="no"?>
<!DOCTYPE svg PUBLIC "-//W3C//DTD SVG 1.1//EN"
  "http://www.w3.org/Graphics/SVG/1.1/DTD/svg11.dtd">
<svg xmlns:xlink="http://www.w3.org/1999/xlink" width="576pt" height="432pt" viewBox="0 0 576 432" xmlns="http://www.w3.org/2000/svg" version="1.1">
 <metadata>
  <rdf:RDF xmlns:dc="http://purl.org/dc/elements/1.1/" xmlns:cc="http://creativecommons.org/ns#" xmlns:rdf="http://www.w3.org/1999/02/22-rdf-syntax-ns#">
   <cc:Work>
    <dc:type rdf:resource="http://purl.org/dc/dcmitype/StillImage"/>
    <dc:date>2023-12-11T01:16:10.648567</dc:date>
    <dc:format>image/svg+xml</dc:format>
    <dc:creator>
     <cc:Agent>
      <dc:title>Matplotlib v3.8.2, https://matplotlib.org/</dc:title>
     </cc:Agent>
    </dc:creator>
   </cc:Work>
  </rdf:RDF>
 </metadata>
 <defs>
  <style type="text/css">*{stroke-linejoin: round; stroke-linecap: butt}</style>
 </defs>
 <g id="figure_1">
  <g id="patch_1">
   <path d="M 0 432 
L 576 432 
L 576 0 
L 0 0 
z
" style="fill: #ffffff"/>
  </g>
  <g id="axes_1">
   <g id="patch_2">
    <path d="M 50.87 179.44 
L 565.2 179.44 
L 565.2 26.88 
L 50.87 26.88 
z
" style="fill: #ffffff"/>
   </g>
   <g id="matplotlib.axis_1">
    <g id="xtick_1">
     <g id="line2d_1">
      <path d="M 74.248636 179.44 
L 74.248636 26.88 
" clip-path="url(#p7a6ea8fe24)" style="fill: none; stroke: #b0b0b0; stroke-width: 0.8; stroke-linecap: square"/>
     </g>
     <g id="line2d_2">
      <defs>
       <path id="mb49315f5ea" d="M 0 0 
L 0 3.5 
" style="stroke: #000000; stroke-width: 0.8"/>
      </defs>
      <g>
       <use xlink:href="#mb49315f5ea" x="74.248636" y="179.44" style="stroke: #000000; stroke-width: 0.8"/>
      </g>
     </g>
     <g id="text_1">
      <!-- 0 -->
      <g transform="translate(71.067386 194.038437) scale(0.1 -0.1)">
       <defs>
        <path id="DejaVuSans-30" d="M 2034 4250 
Q 1547 4250 1301 3770 
Q 1056 3291 1056 2328 
Q 1056 1369 1301 889 
Q 1547 409 2034 409 
Q 2525 409 2770 889 
Q 3016 1369 3016 2328 
Q 3016 3291 2770 3770 
Q 2525 4250 2034 4250 
z
M 2034 4750 
Q 2819 4750 3233 4129 
Q 3647 3509 3647 2328 
Q 3647 1150 3233 529 
Q 2819 -91 2034 -91 
Q 1250 -91 836 529 
Q 422 1150 422 2328 
Q 422 3509 836 4129 
Q 1250 4750 2034 4750 
z
" transform="scale(0.015625)"/>
       </defs>
       <use xlink:href="#DejaVuSans-30"/>
      </g>
     </g>
    </g>
    <g id="xtick_2">
     <g id="line2d_3">
      <path d="M 132.768377 179.44 
L 132.768377 26.88 
" clip-path="url(#p7a6ea8fe24)" style="fill: none; stroke: #b0b0b0; stroke-width: 0.8; stroke-linecap: square"/>
     </g>
     <g id="line2d_4">
      <g>
       <use xlink:href="#mb49315f5ea" x="132.768377" y="179.44" style="stroke: #000000; stroke-width: 0.8"/>
      </g>
     </g>
     <g id="text_2">
      <!-- 100 -->
      <g transform="translate(123.224627 194.038437) scale(0.1 -0.1)">
       <defs>
        <path id="DejaVuSans-31" d="M 794 531 
L 1825 531 
L 1825 4091 
L 703 3866 
L 703 4441 
L 1819 4666 
L 2450 4666 
L 2450 531 
L 3481 531 
L 3481 0 
L 794 0 
L 794 531 
z
" transform="scale(0.015625)"/>
       </defs>
       <use xlink:href="#DejaVuSans-31"/>
       <use xlink:href="#DejaVuSans-30" x="63.623047"/>
       <use xlink:href="#DejaVuSans-30" x="127.246094"/>
      </g>
     </g>
    </g>
    <g id="xtick_3">
     <g id="line2d_5">
      <path d="M 191.288118 179.44 
L 191.288118 26.88 
" clip-path="url(#p7a6ea8fe24)" style="fill: none; stroke: #b0b0b0; stroke-width: 0.8; stroke-linecap: square"/>
     </g>
     <g id="line2d_6">
      <g>
       <use xlink:href="#mb49315f5ea" x="191.288118" y="179.44" style="stroke: #000000; stroke-width: 0.8"/>
      </g>
     </g>
     <g id="text_3">
      <!-- 200 -->
      <g transform="translate(181.744368 194.038437) scale(0.1 -0.1)">
       <defs>
        <path id="DejaVuSans-32" d="M 1228 531 
L 3431 531 
L 3431 0 
L 469 0 
L 469 531 
Q 828 903 1448 1529 
Q 2069 2156 2228 2338 
Q 2531 2678 2651 2914 
Q 2772 3150 2772 3378 
Q 2772 3750 2511 3984 
Q 2250 4219 1831 4219 
Q 1534 4219 1204 4116 
Q 875 4013 500 3803 
L 500 4441 
Q 881 4594 1212 4672 
Q 1544 4750 1819 4750 
Q 2544 4750 2975 4387 
Q 3406 4025 3406 3419 
Q 3406 3131 3298 2873 
Q 3191 2616 2906 2266 
Q 2828 2175 2409 1742 
Q 1991 1309 1228 531 
z
" transform="scale(0.015625)"/>
       </defs>
       <use xlink:href="#DejaVuSans-32"/>
       <use xlink:href="#DejaVuSans-30" x="63.623047"/>
       <use xlink:href="#DejaVuSans-30" x="127.246094"/>
      </g>
     </g>
    </g>
    <g id="xtick_4">
     <g id="line2d_7">
      <path d="M 249.807858 179.44 
L 249.807858 26.88 
" clip-path="url(#p7a6ea8fe24)" style="fill: none; stroke: #b0b0b0; stroke-width: 0.8; stroke-linecap: square"/>
     </g>
     <g id="line2d_8">
      <g>
       <use xlink:href="#mb49315f5ea" x="249.807858" y="179.44" style="stroke: #000000; stroke-width: 0.8"/>
      </g>
     </g>
     <g id="text_4">
      <!-- 300 -->
      <g transform="translate(240.264108 194.038437) scale(0.1 -0.1)">
       <defs>
        <path id="DejaVuSans-33" d="M 2597 2516 
Q 3050 2419 3304 2112 
Q 3559 1806 3559 1356 
Q 3559 666 3084 287 
Q 2609 -91 1734 -91 
Q 1441 -91 1130 -33 
Q 819 25 488 141 
L 488 750 
Q 750 597 1062 519 
Q 1375 441 1716 441 
Q 2309 441 2620 675 
Q 2931 909 2931 1356 
Q 2931 1769 2642 2001 
Q 2353 2234 1838 2234 
L 1294 2234 
L 1294 2753 
L 1863 2753 
Q 2328 2753 2575 2939 
Q 2822 3125 2822 3475 
Q 2822 3834 2567 4026 
Q 2313 4219 1838 4219 
Q 1578 4219 1281 4162 
Q 984 4106 628 3988 
L 628 4550 
Q 988 4650 1302 4700 
Q 1616 4750 1894 4750 
Q 2613 4750 3031 4423 
Q 3450 4097 3450 3541 
Q 3450 3153 3228 2886 
Q 3006 2619 2597 2516 
z
" transform="scale(0.015625)"/>
       </defs>
       <use xlink:href="#DejaVuSans-33"/>
       <use xlink:href="#DejaVuSans-30" x="63.623047"/>
       <use xlink:href="#DejaVuSans-30" x="127.246094"/>
      </g>
     </g>
    </g>
    <g id="xtick_5">
     <g id="line2d_9">
      <path d="M 308.327599 179.44 
L 308.327599 26.88 
" clip-path="url(#p7a6ea8fe24)" style="fill: none; stroke: #b0b0b0; stroke-width: 0.8; stroke-linecap: square"/>
     </g>
     <g id="line2d_10">
      <g>
       <use xlink:href="#mb49315f5ea" x="308.327599" y="179.44" style="stroke: #000000; stroke-width: 0.8"/>
      </g>
     </g>
     <g id="text_5">
      <!-- 400 -->
      <g transform="translate(298.783849 194.038437) scale(0.1 -0.1)">
       <defs>
        <path id="DejaVuSans-34" d="M 2419 4116 
L 825 1625 
L 2419 1625 
L 2419 4116 
z
M 2253 4666 
L 3047 4666 
L 3047 1625 
L 3713 1625 
L 3713 1100 
L 3047 1100 
L 3047 0 
L 2419 0 
L 2419 1100 
L 313 1100 
L 313 1709 
L 2253 4666 
z
" transform="scale(0.015625)"/>
       </defs>
       <use xlink:href="#DejaVuSans-34"/>
       <use xlink:href="#DejaVuSans-30" x="63.623047"/>
       <use xlink:href="#DejaVuSans-30" x="127.246094"/>
      </g>
     </g>
    </g>
    <g id="xtick_6">
     <g id="line2d_11">
      <path d="M 366.847339 179.44 
L 366.847339 26.88 
" clip-path="url(#p7a6ea8fe24)" style="fill: none; stroke: #b0b0b0; stroke-width: 0.8; stroke-linecap: square"/>
     </g>
     <g id="line2d_12">
      <g>
       <use xlink:href="#mb49315f5ea" x="366.847339" y="179.44" style="stroke: #000000; stroke-width: 0.8"/>
      </g>
     </g>
     <g id="text_6">
      <!-- 500 -->
      <g transform="translate(357.303589 194.038437) scale(0.1 -0.1)">
       <defs>
        <path id="DejaVuSans-35" d="M 691 4666 
L 3169 4666 
L 3169 4134 
L 1269 4134 
L 1269 2991 
Q 1406 3038 1543 3061 
Q 1681 3084 1819 3084 
Q 2600 3084 3056 2656 
Q 3513 2228 3513 1497 
Q 3513 744 3044 326 
Q 2575 -91 1722 -91 
Q 1428 -91 1123 -41 
Q 819 9 494 109 
L 494 744 
Q 775 591 1075 516 
Q 1375 441 1709 441 
Q 2250 441 2565 725 
Q 2881 1009 2881 1497 
Q 2881 1984 2565 2268 
Q 2250 2553 1709 2553 
Q 1456 2553 1204 2497 
Q 953 2441 691 2322 
L 691 4666 
z
" transform="scale(0.015625)"/>
       </defs>
       <use xlink:href="#DejaVuSans-35"/>
       <use xlink:href="#DejaVuSans-30" x="63.623047"/>
       <use xlink:href="#DejaVuSans-30" x="127.246094"/>
      </g>
     </g>
    </g>
    <g id="xtick_7">
     <g id="line2d_13">
      <path d="M 425.36708 179.44 
L 425.36708 26.88 
" clip-path="url(#p7a6ea8fe24)" style="fill: none; stroke: #b0b0b0; stroke-width: 0.8; stroke-linecap: square"/>
     </g>
     <g id="line2d_14">
      <g>
       <use xlink:href="#mb49315f5ea" x="425.36708" y="179.44" style="stroke: #000000; stroke-width: 0.8"/>
      </g>
     </g>
     <g id="text_7">
      <!-- 600 -->
      <g transform="translate(415.82333 194.038437) scale(0.1 -0.1)">
       <defs>
        <path id="DejaVuSans-36" d="M 2113 2584 
Q 1688 2584 1439 2293 
Q 1191 2003 1191 1497 
Q 1191 994 1439 701 
Q 1688 409 2113 409 
Q 2538 409 2786 701 
Q 3034 994 3034 1497 
Q 3034 2003 2786 2293 
Q 2538 2584 2113 2584 
z
M 3366 4563 
L 3366 3988 
Q 3128 4100 2886 4159 
Q 2644 4219 2406 4219 
Q 1781 4219 1451 3797 
Q 1122 3375 1075 2522 
Q 1259 2794 1537 2939 
Q 1816 3084 2150 3084 
Q 2853 3084 3261 2657 
Q 3669 2231 3669 1497 
Q 3669 778 3244 343 
Q 2819 -91 2113 -91 
Q 1303 -91 875 529 
Q 447 1150 447 2328 
Q 447 3434 972 4092 
Q 1497 4750 2381 4750 
Q 2619 4750 2861 4703 
Q 3103 4656 3366 4563 
z
" transform="scale(0.015625)"/>
       </defs>
       <use xlink:href="#DejaVuSans-36"/>
       <use xlink:href="#DejaVuSans-30" x="63.623047"/>
       <use xlink:href="#DejaVuSans-30" x="127.246094"/>
      </g>
     </g>
    </g>
    <g id="xtick_8">
     <g id="line2d_15">
      <path d="M 483.88682 179.44 
L 483.88682 26.88 
" clip-path="url(#p7a6ea8fe24)" style="fill: none; stroke: #b0b0b0; stroke-width: 0.8; stroke-linecap: square"/>
     </g>
     <g id="line2d_16">
      <g>
       <use xlink:href="#mb49315f5ea" x="483.88682" y="179.44" style="stroke: #000000; stroke-width: 0.8"/>
      </g>
     </g>
     <g id="text_8">
      <!-- 700 -->
      <g transform="translate(474.34307 194.038437) scale(0.1 -0.1)">
       <defs>
        <path id="DejaVuSans-37" d="M 525 4666 
L 3525 4666 
L 3525 4397 
L 1831 0 
L 1172 0 
L 2766 4134 
L 525 4134 
L 525 4666 
z
" transform="scale(0.015625)"/>
       </defs>
       <use xlink:href="#DejaVuSans-37"/>
       <use xlink:href="#DejaVuSans-30" x="63.623047"/>
       <use xlink:href="#DejaVuSans-30" x="127.246094"/>
      </g>
     </g>
    </g>
    <g id="xtick_9">
     <g id="line2d_17">
      <path d="M 542.406561 179.44 
L 542.406561 26.88 
" clip-path="url(#p7a6ea8fe24)" style="fill: none; stroke: #b0b0b0; stroke-width: 0.8; stroke-linecap: square"/>
     </g>
     <g id="line2d_18">
      <g>
       <use xlink:href="#mb49315f5ea" x="542.406561" y="179.44" style="stroke: #000000; stroke-width: 0.8"/>
      </g>
     </g>
     <g id="text_9">
      <!-- 800 -->
      <g transform="translate(532.862811 194.038437) scale(0.1 -0.1)">
       <defs>
        <path id="DejaVuSans-38" d="M 2034 2216 
Q 1584 2216 1326 1975 
Q 1069 1734 1069 1313 
Q 1069 891 1326 650 
Q 1584 409 2034 409 
Q 2484 409 2743 651 
Q 3003 894 3003 1313 
Q 3003 1734 2745 1975 
Q 2488 2216 2034 2216 
z
M 1403 2484 
Q 997 2584 770 2862 
Q 544 3141 544 3541 
Q 544 4100 942 4425 
Q 1341 4750 2034 4750 
Q 2731 4750 3128 4425 
Q 3525 4100 3525 3541 
Q 3525 3141 3298 2862 
Q 3072 2584 2669 2484 
Q 3125 2378 3379 2068 
Q 3634 1759 3634 1313 
Q 3634 634 3220 271 
Q 2806 -91 2034 -91 
Q 1263 -91 848 271 
Q 434 634 434 1313 
Q 434 1759 690 2068 
Q 947 2378 1403 2484 
z
M 1172 3481 
Q 1172 3119 1398 2916 
Q 1625 2713 2034 2713 
Q 2441 2713 2670 2916 
Q 2900 3119 2900 3481 
Q 2900 3844 2670 4047 
Q 2441 4250 2034 4250 
Q 1625 4250 1398 4047 
Q 1172 3844 1172 3481 
z
" transform="scale(0.015625)"/>
       </defs>
       <use xlink:href="#DejaVuSans-38"/>
       <use xlink:href="#DejaVuSans-30" x="63.623047"/>
       <use xlink:href="#DejaVuSans-30" x="127.246094"/>
      </g>
     </g>
    </g>
    <g id="text_10">
     <!-- Index -->
     <g transform="translate(294.268594 207.716562) scale(0.1 -0.1)">
      <defs>
       <path id="DejaVuSans-49" d="M 628 4666 
L 1259 4666 
L 1259 0 
L 628 0 
L 628 4666 
z
" transform="scale(0.015625)"/>
       <path id="DejaVuSans-6e" d="M 3513 2113 
L 3513 0 
L 2938 0 
L 2938 2094 
Q 2938 2591 2744 2837 
Q 2550 3084 2163 3084 
Q 1697 3084 1428 2787 
Q 1159 2491 1159 1978 
L 1159 0 
L 581 0 
L 581 3500 
L 1159 3500 
L 1159 2956 
Q 1366 3272 1645 3428 
Q 1925 3584 2291 3584 
Q 2894 3584 3203 3211 
Q 3513 2838 3513 2113 
z
" transform="scale(0.015625)"/>
       <path id="DejaVuSans-64" d="M 2906 2969 
L 2906 4863 
L 3481 4863 
L 3481 0 
L 2906 0 
L 2906 525 
Q 2725 213 2448 61 
Q 2172 -91 1784 -91 
Q 1150 -91 751 415 
Q 353 922 353 1747 
Q 353 2572 751 3078 
Q 1150 3584 1784 3584 
Q 2172 3584 2448 3432 
Q 2725 3281 2906 2969 
z
M 947 1747 
Q 947 1113 1208 752 
Q 1469 391 1925 391 
Q 2381 391 2643 752 
Q 2906 1113 2906 1747 
Q 2906 2381 2643 2742 
Q 2381 3103 1925 3103 
Q 1469 3103 1208 2742 
Q 947 2381 947 1747 
z
" transform="scale(0.015625)"/>
       <path id="DejaVuSans-65" d="M 3597 1894 
L 3597 1613 
L 953 1613 
Q 991 1019 1311 708 
Q 1631 397 2203 397 
Q 2534 397 2845 478 
Q 3156 559 3463 722 
L 3463 178 
Q 3153 47 2828 -22 
Q 2503 -91 2169 -91 
Q 1331 -91 842 396 
Q 353 884 353 1716 
Q 353 2575 817 3079 
Q 1281 3584 2069 3584 
Q 2775 3584 3186 3129 
Q 3597 2675 3597 1894 
z
M 3022 2063 
Q 3016 2534 2758 2815 
Q 2500 3097 2075 3097 
Q 1594 3097 1305 2825 
Q 1016 2553 972 2059 
L 3022 2063 
z
" transform="scale(0.015625)"/>
       <path id="DejaVuSans-78" d="M 3513 3500 
L 2247 1797 
L 3578 0 
L 2900 0 
L 1881 1375 
L 863 0 
L 184 0 
L 1544 1831 
L 300 3500 
L 978 3500 
L 1906 2253 
L 2834 3500 
L 3513 3500 
z
" transform="scale(0.015625)"/>
      </defs>
      <use xlink:href="#DejaVuSans-49"/>
      <use xlink:href="#DejaVuSans-6e" x="29.492188"/>
      <use xlink:href="#DejaVuSans-64" x="92.871094"/>
      <use xlink:href="#DejaVuSans-65" x="156.347656"/>
      <use xlink:href="#DejaVuSans-78" x="216.121094"/>
     </g>
    </g>
   </g>
   <g id="matplotlib.axis_2">
    <g id="ytick_1">
     <g id="line2d_19">
      <path d="M 50.87 172.505455 
L 565.2 172.505455 
" clip-path="url(#p7a6ea8fe24)" style="fill: none; stroke: #b0b0b0; stroke-width: 0.8; stroke-linecap: square"/>
     </g>
     <g id="line2d_20">
      <defs>
       <path id="m3dcdca9d41" d="M 0 0 
L -3.5 0 
" style="stroke: #000000; stroke-width: 0.8"/>
      </defs>
      <g>
       <use xlink:href="#m3dcdca9d41" x="50.87" y="172.505455" style="stroke: #000000; stroke-width: 0.8"/>
      </g>
     </g>
     <g id="text_11">
      <!-- 0 -->
      <g transform="translate(37.5075 176.304673) scale(0.1 -0.1)">
       <use xlink:href="#DejaVuSans-30"/>
      </g>
     </g>
    </g>
    <g id="ytick_2">
     <g id="line2d_21">
      <path d="M 50.87 150.491025 
L 565.2 150.491025 
" clip-path="url(#p7a6ea8fe24)" style="fill: none; stroke: #b0b0b0; stroke-width: 0.8; stroke-linecap: square"/>
     </g>
     <g id="line2d_22">
      <g>
       <use xlink:href="#m3dcdca9d41" x="50.87" y="150.491025" style="stroke: #000000; stroke-width: 0.8"/>
      </g>
     </g>
     <g id="text_12">
      <!-- 10 -->
      <g transform="translate(31.145 154.290243) scale(0.1 -0.1)">
       <use xlink:href="#DejaVuSans-31"/>
       <use xlink:href="#DejaVuSans-30" x="63.623047"/>
      </g>
     </g>
    </g>
    <g id="ytick_3">
     <g id="line2d_23">
      <path d="M 50.87 128.476595 
L 565.2 128.476595 
" clip-path="url(#p7a6ea8fe24)" style="fill: none; stroke: #b0b0b0; stroke-width: 0.8; stroke-linecap: square"/>
     </g>
     <g id="line2d_24">
      <g>
       <use xlink:href="#m3dcdca9d41" x="50.87" y="128.476595" style="stroke: #000000; stroke-width: 0.8"/>
      </g>
     </g>
     <g id="text_13">
      <!-- 20 -->
      <g transform="translate(31.145 132.275813) scale(0.1 -0.1)">
       <use xlink:href="#DejaVuSans-32"/>
       <use xlink:href="#DejaVuSans-30" x="63.623047"/>
      </g>
     </g>
    </g>
    <g id="ytick_4">
     <g id="line2d_25">
      <path d="M 50.87 106.462165 
L 565.2 106.462165 
" clip-path="url(#p7a6ea8fe24)" style="fill: none; stroke: #b0b0b0; stroke-width: 0.8; stroke-linecap: square"/>
     </g>
     <g id="line2d_26">
      <g>
       <use xlink:href="#m3dcdca9d41" x="50.87" y="106.462165" style="stroke: #000000; stroke-width: 0.8"/>
      </g>
     </g>
     <g id="text_14">
      <!-- 30 -->
      <g transform="translate(31.145 110.261383) scale(0.1 -0.1)">
       <use xlink:href="#DejaVuSans-33"/>
       <use xlink:href="#DejaVuSans-30" x="63.623047"/>
      </g>
     </g>
    </g>
    <g id="ytick_5">
     <g id="line2d_27">
      <path d="M 50.87 84.447734 
L 565.2 84.447734 
" clip-path="url(#p7a6ea8fe24)" style="fill: none; stroke: #b0b0b0; stroke-width: 0.8; stroke-linecap: square"/>
     </g>
     <g id="line2d_28">
      <g>
       <use xlink:href="#m3dcdca9d41" x="50.87" y="84.447734" style="stroke: #000000; stroke-width: 0.8"/>
      </g>
     </g>
     <g id="text_15">
      <!-- 40 -->
      <g transform="translate(31.145 88.246953) scale(0.1 -0.1)">
       <use xlink:href="#DejaVuSans-34"/>
       <use xlink:href="#DejaVuSans-30" x="63.623047"/>
      </g>
     </g>
    </g>
    <g id="ytick_6">
     <g id="line2d_29">
      <path d="M 50.87 62.433304 
L 565.2 62.433304 
" clip-path="url(#p7a6ea8fe24)" style="fill: none; stroke: #b0b0b0; stroke-width: 0.8; stroke-linecap: square"/>
     </g>
     <g id="line2d_30">
      <g>
       <use xlink:href="#m3dcdca9d41" x="50.87" y="62.433304" style="stroke: #000000; stroke-width: 0.8"/>
      </g>
     </g>
     <g id="text_16">
      <!-- 50 -->
      <g transform="translate(31.145 66.232523) scale(0.1 -0.1)">
       <use xlink:href="#DejaVuSans-35"/>
       <use xlink:href="#DejaVuSans-30" x="63.623047"/>
      </g>
     </g>
    </g>
    <g id="ytick_7">
     <g id="line2d_31">
      <path d="M 50.87 40.418874 
L 565.2 40.418874 
" clip-path="url(#p7a6ea8fe24)" style="fill: none; stroke: #b0b0b0; stroke-width: 0.8; stroke-linecap: square"/>
     </g>
     <g id="line2d_32">
      <g>
       <use xlink:href="#m3dcdca9d41" x="50.87" y="40.418874" style="stroke: #000000; stroke-width: 0.8"/>
      </g>
     </g>
     <g id="text_17">
      <!-- 60 -->
      <g transform="translate(31.145 44.218093) scale(0.1 -0.1)">
       <use xlink:href="#DejaVuSans-36"/>
       <use xlink:href="#DejaVuSans-30" x="63.623047"/>
      </g>
     </g>
    </g>
    <g id="text_18">
     <!-- DST -->
     <g transform="translate(25.065313 113.238125) rotate(-90) scale(0.1 -0.1)">
      <defs>
       <path id="DejaVuSans-44" d="M 1259 4147 
L 1259 519 
L 2022 519 
Q 2988 519 3436 956 
Q 3884 1394 3884 2338 
Q 3884 3275 3436 3711 
Q 2988 4147 2022 4147 
L 1259 4147 
z
M 628 4666 
L 1925 4666 
Q 3281 4666 3915 4102 
Q 4550 3538 4550 2338 
Q 4550 1131 3912 565 
Q 3275 0 1925 0 
L 628 0 
L 628 4666 
z
" transform="scale(0.015625)"/>
       <path id="DejaVuSans-53" d="M 3425 4513 
L 3425 3897 
Q 3066 4069 2747 4153 
Q 2428 4238 2131 4238 
Q 1616 4238 1336 4038 
Q 1056 3838 1056 3469 
Q 1056 3159 1242 3001 
Q 1428 2844 1947 2747 
L 2328 2669 
Q 3034 2534 3370 2195 
Q 3706 1856 3706 1288 
Q 3706 609 3251 259 
Q 2797 -91 1919 -91 
Q 1588 -91 1214 -16 
Q 841 59 441 206 
L 441 856 
Q 825 641 1194 531 
Q 1563 422 1919 422 
Q 2459 422 2753 634 
Q 3047 847 3047 1241 
Q 3047 1584 2836 1778 
Q 2625 1972 2144 2069 
L 1759 2144 
Q 1053 2284 737 2584 
Q 422 2884 422 3419 
Q 422 4038 858 4394 
Q 1294 4750 2059 4750 
Q 2388 4750 2728 4690 
Q 3069 4631 3425 4513 
z
" transform="scale(0.015625)"/>
       <path id="DejaVuSans-54" d="M -19 4666 
L 3928 4666 
L 3928 4134 
L 2272 4134 
L 2272 0 
L 1638 0 
L 1638 4134 
L -19 4134 
L -19 4666 
z
" transform="scale(0.015625)"/>
      </defs>
      <use xlink:href="#DejaVuSans-44"/>
      <use xlink:href="#DejaVuSans-53" x="77.001953"/>
      <use xlink:href="#DejaVuSans-54" x="140.478516"/>
     </g>
    </g>
   </g>
   <g id="line2d_33">
    <path d="M 74.248636 148.289582 
L 74.833834 148.289582 
L 75.419031 104.260722 
L 76.004229 33.814545 
L 76.589426 172.505455 
L 77.759821 172.505455 
L 78.345018 165.901126 
L 78.930216 163.699683 
L 81.271005 163.699683 
L 82.4414 159.296797 
L 83.026597 159.296797 
L 83.611795 157.095354 
L 84.196992 157.095354 
L 84.78219 172.505455 
L 85.367387 172.505455 
L 85.952584 170.304012 
L 86.537782 170.304012 
L 87.122979 157.095354 
L 87.708177 157.095354 
L 88.293374 143.886696 
L 88.878572 172.505455 
L 90.048966 172.505455 
L 90.634164 170.304012 
L 91.219361 165.901126 
L 91.804559 163.699683 
L 92.389756 163.699683 
L 92.974953 159.296797 
L 93.560151 157.095354 
L 94.145348 143.886696 
L 95.315743 143.886696 
L 95.90094 165.901126 
L 96.486138 163.699683 
L 97.071335 143.886696 
L 97.656533 165.901126 
L 98.24173 163.699683 
L 98.826927 143.886696 
L 99.412125 104.260722 
L 99.997322 33.814545 
L 100.58252 172.505455 
L 101.752914 172.505455 
L 102.338112 165.901126 
L 102.923309 163.699683 
L 105.264099 163.699683 
L 106.434494 159.296797 
L 107.019691 159.296797 
L 107.604888 157.095354 
L 108.190086 157.095354 
L 108.775283 172.505455 
L 109.360481 172.505455 
L 109.945678 170.304012 
L 111.116073 170.304012 
L 111.70127 157.095354 
L 112.286468 157.095354 
L 112.871665 143.886696 
L 113.456863 172.505455 
L 114.627257 172.505455 
L 115.212455 170.304012 
L 115.797652 165.901126 
L 116.38285 163.699683 
L 116.968047 163.699683 
L 117.553244 159.296797 
L 118.138442 157.095354 
L 118.723639 143.886696 
L 119.894034 143.886696 
L 120.479231 165.901126 
L 121.064429 163.699683 
L 121.649626 143.886696 
L 122.234824 165.901126 
L 122.820021 163.699683 
L 123.405218 143.886696 
L 123.990416 104.260722 
L 124.575613 33.814545 
L 125.160811 172.505455 
L 126.331205 172.505455 
L 126.916403 165.901126 
L 127.5016 163.699683 
L 129.84239 163.699683 
L 131.012785 159.296797 
L 131.597982 159.296797 
L 132.18318 157.095354 
L 132.768377 157.095354 
L 133.353574 172.505455 
L 133.938772 172.505455 
L 134.523969 170.304012 
L 135.694364 143.886696 
L 136.279561 172.505455 
L 137.449956 172.505455 
L 138.035154 170.304012 
L 138.620351 165.901126 
L 139.205548 163.699683 
L 139.790746 163.699683 
L 140.375943 159.296797 
L 140.961141 157.095354 
L 141.546338 143.886696 
L 142.716733 143.886696 
L 143.30193 165.901126 
L 143.887128 163.699683 
L 144.472325 143.886696 
L 145.057522 165.901126 
L 145.64272 163.699683 
L 146.227917 143.886696 
L 146.813115 104.260722 
L 147.398312 33.814545 
L 147.98351 172.505455 
L 149.739102 172.505455 
L 150.324299 165.901126 
L 151.494694 165.901126 
L 152.079891 163.699683 
L 155.591076 163.699683 
L 156.761471 159.296797 
L 157.931865 159.296797 
L 158.517063 157.095354 
L 159.687458 157.095354 
L 160.272655 172.505455 
L 160.857852 172.505455 
L 161.44305 170.304012 
L 162.613445 143.886696 
L 163.198642 172.505455 
L 164.369037 172.505455 
L 164.954234 170.304012 
L 165.539432 165.901126 
L 166.124629 163.699683 
L 166.709826 163.699683 
L 167.295024 159.296797 
L 167.880221 157.095354 
L 168.465419 143.886696 
L 169.050616 143.886696 
L 169.635814 165.901126 
L 170.221011 163.699683 
L 170.806208 143.886696 
L 171.391406 165.901126 
L 171.976603 163.699683 
L 172.561801 143.886696 
L 173.146998 104.260722 
L 173.732195 33.814545 
L 174.317393 172.505455 
L 175.487788 172.505455 
L 176.072985 165.901126 
L 176.658182 163.699683 
L 178.998972 163.699683 
L 180.169367 159.296797 
L 180.754564 159.296797 
L 181.339762 157.095354 
L 181.924959 157.095354 
L 182.510156 172.505455 
L 183.095354 172.505455 
L 184.265749 143.886696 
L 184.850946 172.505455 
L 186.021341 172.505455 
L 186.606538 170.304012 
L 187.191736 165.901126 
L 187.776933 163.699683 
L 188.362131 163.699683 
L 188.947328 159.296797 
L 189.532525 157.095354 
L 190.117723 165.901126 
L 190.70292 163.699683 
L 191.288118 143.886696 
L 191.873315 165.901126 
L 192.458512 163.699683 
L 193.04371 143.886696 
L 193.628907 104.260722 
L 194.214105 33.814545 
L 194.799302 172.505455 
L 195.969697 172.505455 
L 196.554894 165.901126 
L 197.140092 163.699683 
L 199.480881 163.699683 
L 200.651276 159.296797 
L 201.236473 159.296797 
L 201.821671 157.095354 
L 202.406868 157.095354 
L 202.992066 172.505455 
L 203.577263 172.505455 
L 204.16246 170.304012 
L 204.747658 170.304012 
L 205.918053 143.886696 
L 206.50325 172.505455 
L 207.673645 172.505455 
L 208.258842 170.304012 
L 208.84404 165.901126 
L 209.429237 163.699683 
L 210.014435 163.699683 
L 210.599632 159.296797 
L 211.184829 157.095354 
L 211.770027 165.901126 
L 212.355224 163.699683 
L 212.940422 143.886696 
L 213.525619 165.901126 
L 214.110816 163.699683 
L 214.696014 143.886696 
L 215.281211 104.260722 
L 215.866409 33.814545 
L 216.451606 172.505455 
L 217.622001 172.505455 
L 218.207198 165.901126 
L 218.792396 163.699683 
L 221.133185 163.699683 
L 222.30358 159.296797 
L 222.888777 159.296797 
L 223.473975 157.095354 
L 224.059172 157.095354 
L 224.64437 172.505455 
L 225.229567 172.505455 
L 225.814764 170.304012 
L 226.985159 143.886696 
L 227.570357 172.505455 
L 228.740752 172.505455 
L 229.325949 170.304012 
L 229.911146 165.901126 
L 230.496344 163.699683 
L 231.081541 163.699683 
L 231.666739 159.296797 
L 232.251936 157.095354 
L 232.837133 165.901126 
L 233.422331 163.699683 
L 234.007528 143.886696 
L 234.592726 165.901126 
L 235.177923 163.699683 
L 235.76312 143.886696 
L 236.348318 104.260722 
L 236.933515 33.814545 
L 237.518713 172.505455 
L 238.689107 172.505455 
L 239.274305 165.901126 
L 239.859502 163.699683 
L 242.200292 163.699683 
L 243.370687 159.296797 
L 243.955884 159.296797 
L 244.541081 157.095354 
L 245.126279 157.095354 
L 245.711476 172.505455 
L 246.296674 172.505455 
L 246.881871 170.304012 
L 248.052266 143.886696 
L 248.637463 172.505455 
L 249.807858 172.505455 
L 250.393056 170.304012 
L 250.978253 165.901126 
L 251.56345 163.699683 
L 252.148648 163.699683 
L 252.733845 159.296797 
L 253.319043 157.095354 
L 253.90424 165.901126 
L 254.489437 163.699683 
L 255.074635 143.886696 
L 255.659832 165.901126 
L 256.24503 163.699683 
L 256.830227 143.886696 
L 257.415424 104.260722 
L 258.000622 33.814545 
L 258.585819 172.505455 
L 259.756214 172.505455 
L 260.341411 165.901126 
L 260.926609 163.699683 
L 263.267398 163.699683 
L 264.437793 159.296797 
L 265.022991 159.296797 
L 265.608188 157.095354 
L 266.193385 157.095354 
L 266.778583 172.505455 
L 267.36378 172.505455 
L 267.948978 170.304012 
L 269.119373 143.886696 
L 269.70457 172.505455 
L 270.874965 172.505455 
L 271.460162 170.304012 
L 272.04536 165.901126 
L 272.630557 163.699683 
L 273.215754 163.699683 
L 273.800952 159.296797 
L 274.386149 157.095354 
L 274.971347 165.901126 
L 275.556544 163.699683 
L 276.141741 143.886696 
L 276.726939 165.901126 
L 277.312136 163.699683 
L 277.897334 143.886696 
L 278.482531 104.260722 
L 279.067728 33.814545 
L 279.652926 172.505455 
L 280.823321 172.505455 
L 281.408518 165.901126 
L 281.993715 163.699683 
L 284.334505 163.699683 
L 285.5049 159.296797 
L 286.090097 159.296797 
L 286.675295 157.095354 
L 287.260492 157.095354 
L 287.845689 172.505455 
L 288.430887 172.505455 
L 289.016084 170.304012 
L 290.186479 170.304012 
L 290.771677 157.095354 
L 291.356874 157.095354 
L 291.942071 143.886696 
L 292.527269 172.505455 
L 296.038453 172.505455 
L 296.623651 170.304012 
L 297.794045 170.304012 
L 298.379243 165.901126 
L 298.96444 165.901126 
L 299.549638 163.699683 
L 300.720032 163.699683 
L 301.30523 159.296797 
L 301.890427 159.296797 
L 302.475625 157.095354 
L 303.060822 157.095354 
L 303.646019 165.901126 
L 304.231217 163.699683 
L 304.816414 143.886696 
L 305.401612 165.901126 
L 305.986809 163.699683 
L 306.572006 143.886696 
L 307.157204 104.260722 
L 307.742401 33.814545 
L 308.327599 172.505455 
L 309.497994 172.505455 
L 310.083191 165.901126 
L 310.668388 163.699683 
L 313.009178 163.699683 
L 314.179573 159.296797 
L 314.76477 159.296797 
L 315.349968 157.095354 
L 315.935165 157.095354 
L 316.520362 172.505455 
L 317.10556 172.505455 
L 317.690757 170.304012 
L 318.861152 143.886696 
L 319.446349 172.505455 
L 320.616744 172.505455 
L 321.201942 170.304012 
L 321.787139 165.901126 
L 322.372336 163.699683 
L 322.957534 163.699683 
L 323.542731 159.296797 
L 324.127929 157.095354 
L 324.713126 165.901126 
L 325.298323 163.699683 
L 325.883521 143.886696 
L 326.468718 165.901126 
L 327.053916 163.699683 
L 327.639113 143.886696 
L 328.224311 104.260722 
L 328.809508 33.814545 
L 329.394705 172.505455 
L 331.150298 172.505455 
L 331.735495 165.901126 
L 332.90589 165.901126 
L 333.491087 163.699683 
L 337.002272 163.699683 
L 338.172666 159.296797 
L 339.343061 159.296797 
L 339.928259 157.095354 
L 341.098653 157.095354 
L 341.683851 172.505455 
L 342.269048 172.505455 
L 342.854246 170.304012 
L 344.02464 143.886696 
L 344.609838 172.505455 
L 345.780233 172.505455 
L 346.36543 170.304012 
L 346.950627 165.901126 
L 347.535825 163.699683 
L 348.121022 163.699683 
L 348.70622 159.296797 
L 349.291417 157.095354 
L 349.876615 165.901126 
L 350.461812 163.699683 
L 351.047009 143.886696 
L 351.632207 165.901126 
L 352.217404 163.699683 
L 352.802602 143.886696 
L 353.387799 104.260722 
L 353.972996 33.814545 
L 354.558194 172.505455 
L 355.728589 172.505455 
L 356.313786 165.901126 
L 356.898983 163.699683 
L 359.239773 163.699683 
L 360.410168 159.296797 
L 360.995365 159.296797 
L 361.580563 157.095354 
L 362.16576 157.095354 
L 362.750957 172.505455 
L 363.336155 172.505455 
L 363.921352 170.304012 
L 365.091747 143.886696 
L 365.676944 172.505455 
L 366.847339 172.505455 
L 367.432537 170.304012 
L 368.017734 165.901126 
L 368.602932 163.699683 
L 369.188129 163.699683 
L 369.773326 159.296797 
L 370.358524 157.095354 
L 370.943721 165.901126 
L 371.528919 163.699683 
L 372.114116 143.886696 
L 372.699313 165.901126 
L 373.284511 163.699683 
L 373.869708 143.886696 
L 374.454906 104.260722 
L 375.040103 33.814545 
L 375.6253 172.505455 
L 376.795695 172.505455 
L 377.380893 165.901126 
L 377.96609 163.699683 
L 380.30688 163.699683 
L 381.477274 159.296797 
L 382.062472 159.296797 
L 382.647669 157.095354 
L 383.232867 157.095354 
L 383.818064 172.505455 
L 384.403261 172.505455 
L 384.988459 170.304012 
L 386.158854 143.886696 
L 386.744051 172.505455 
L 387.914446 172.505455 
L 388.499643 170.304012 
L 389.084841 165.901126 
L 389.670038 163.699683 
L 390.255236 163.699683 
L 390.840433 159.296797 
L 391.42563 157.095354 
L 392.010828 165.901126 
L 392.596025 163.699683 
L 393.181223 143.886696 
L 393.76642 165.901126 
L 394.351617 163.699683 
L 394.936815 143.886696 
L 395.522012 104.260722 
L 396.10721 33.814545 
L 396.692407 172.505455 
L 397.862802 172.505455 
L 398.447999 165.901126 
L 399.033197 163.699683 
L 401.373986 163.699683 
L 402.544381 159.296797 
L 403.129578 159.296797 
L 403.714776 157.095354 
L 404.299973 157.095354 
L 404.885171 172.505455 
L 405.470368 172.505455 
L 406.640763 143.886696 
L 407.22596 172.505455 
L 408.396355 172.505455 
L 408.981553 170.304012 
L 409.56675 165.901126 
L 410.151947 163.699683 
L 410.737145 163.699683 
L 411.322342 159.296797 
L 411.90754 157.095354 
L 412.492737 165.901126 
L 413.077934 163.699683 
L 413.663132 143.886696 
L 414.248329 165.901126 
L 414.833527 163.699683 
L 415.418724 143.886696 
L 416.003921 104.260722 
L 416.589119 33.814545 
L 417.174316 172.505455 
L 418.344711 172.505455 
L 418.929908 165.901126 
L 419.515106 163.699683 
L 421.855895 163.699683 
L 423.02629 159.296797 
L 423.611488 159.296797 
L 424.196685 157.095354 
L 424.781882 157.095354 
L 425.36708 172.505455 
L 425.952277 172.505455 
L 426.537475 170.304012 
L 427.122672 170.304012 
L 428.293067 143.886696 
L 428.878264 172.505455 
L 430.048659 172.505455 
L 430.633857 170.304012 
L 431.219054 165.901126 
L 431.804251 163.699683 
L 432.389449 163.699683 
L 432.974646 159.296797 
L 433.559844 157.095354 
L 434.145041 165.901126 
L 434.730238 163.699683 
L 435.315436 143.886696 
L 435.900633 165.901126 
L 436.485831 163.699683 
L 437.071028 143.886696 
L 437.656225 104.260722 
L 438.241423 33.814545 
L 438.82662 172.505455 
L 439.997015 172.505455 
L 440.582212 165.901126 
L 441.16741 163.699683 
L 443.508199 163.699683 
L 444.678594 159.296797 
L 445.263792 159.296797 
L 445.848989 157.095354 
L 446.434186 157.095354 
L 447.019384 172.505455 
L 447.604581 172.505455 
L 448.189779 170.304012 
L 449.360174 143.886696 
L 449.945371 172.505455 
L 451.115766 172.505455 
L 451.700963 170.304012 
L 452.286161 165.901126 
L 452.871358 163.699683 
L 453.456555 163.699683 
L 454.041753 159.296797 
L 454.62695 157.095354 
L 455.212148 165.901126 
L 455.797345 163.699683 
L 456.382542 143.886696 
L 456.96774 165.901126 
L 457.552937 163.699683 
L 458.138135 143.886696 
L 458.723332 104.260722 
L 459.308529 33.814545 
L 459.893727 172.505455 
L 461.064122 172.505455 
L 461.649319 165.901126 
L 462.234516 163.699683 
L 464.575306 163.699683 
L 465.745701 159.296797 
L 466.330898 159.296797 
L 466.916096 157.095354 
L 467.501293 157.095354 
L 468.08649 172.505455 
L 468.671688 172.505455 
L 469.256885 170.304012 
L 470.42728 170.304012 
L 471.012478 157.095354 
L 471.597675 157.095354 
L 472.182872 143.886696 
L 472.76807 172.505455 
L 473.938465 172.505455 
L 474.523662 170.304012 
L 475.108859 165.901126 
L 475.694057 163.699683 
L 476.279254 163.699683 
L 476.864452 159.296797 
L 477.449649 157.095354 
L 478.034846 143.886696 
L 479.205241 143.886696 
L 479.790439 165.901126 
L 480.375636 163.699683 
L 480.960833 143.886696 
L 481.546031 165.901126 
L 482.131228 163.699683 
L 482.716426 143.886696 
L 483.301623 104.260722 
L 483.88682 33.814545 
L 484.472018 172.505455 
L 485.642413 172.505455 
L 486.22761 165.901126 
L 486.812807 163.699683 
L 489.153597 163.699683 
L 490.323992 159.296797 
L 490.909189 159.296797 
L 491.494387 157.095354 
L 492.079584 157.095354 
L 492.664782 172.505455 
L 493.835176 172.505455 
L 494.420374 170.304012 
L 495.005571 157.095354 
L 495.590769 157.095354 
L 496.175966 143.886696 
L 496.761163 172.505455 
L 497.931558 172.505455 
L 498.516756 170.304012 
L 499.101953 165.901126 
L 499.68715 163.699683 
L 500.272348 163.699683 
L 500.857545 159.296797 
L 501.442743 157.095354 
L 502.02794 143.886696 
L 503.198335 143.886696 
L 503.783532 165.901126 
L 504.36873 163.699683 
L 504.953927 143.886696 
L 505.539124 165.901126 
L 506.124322 163.699683 
L 506.709519 143.886696 
L 507.294717 104.260722 
L 507.879914 33.814545 
L 508.465112 172.505455 
L 510.220704 172.505455 
L 510.805901 165.901126 
L 511.976296 165.901126 
L 512.561493 163.699683 
L 516.072678 163.699683 
L 517.243073 159.296797 
L 518.413467 159.296797 
L 518.998665 157.095354 
L 520.16906 157.095354 
L 520.754257 172.505455 
L 521.339454 172.505455 
L 521.924652 170.304012 
L 522.509849 170.304012 
L 523.680244 143.886696 
L 524.265441 172.505455 
L 525.435836 172.505455 
L 526.021034 170.304012 
L 526.606231 165.901126 
L 527.191428 163.699683 
L 527.776626 163.699683 
L 528.361823 159.296797 
L 528.947021 157.095354 
L 529.532218 143.886696 
L 530.702613 143.886696 
L 531.28781 165.901126 
L 531.873008 163.699683 
L 532.458205 143.886696 
L 533.043403 165.901126 
L 533.6286 163.699683 
L 534.213797 143.886696 
L 534.798995 104.260722 
L 535.384192 33.814545 
L 535.96939 172.505455 
L 537.139784 172.505455 
L 537.724982 165.901126 
L 538.310179 163.699683 
L 540.650969 163.699683 
L 541.821364 159.296797 
L 541.821364 159.296797 
" clip-path="url(#p7a6ea8fe24)" style="fill: none; stroke: #6495ed; stroke-width: 1.5; stroke-linecap: square"/>
   </g>
   <g id="patch_3">
    <path d="M 50.87 179.44 
L 50.87 26.88 
" style="fill: none; stroke: #000000; stroke-width: 0.8; stroke-linejoin: miter; stroke-linecap: square"/>
   </g>
   <g id="patch_4">
    <path d="M 565.2 179.44 
L 565.2 26.88 
" style="fill: none; stroke: #000000; stroke-width: 0.8; stroke-linejoin: miter; stroke-linecap: square"/>
   </g>
   <g id="patch_5">
    <path d="M 50.87 179.44 
L 565.2 179.44 
" style="fill: none; stroke: #000000; stroke-width: 0.8; stroke-linejoin: miter; stroke-linecap: square"/>
   </g>
   <g id="patch_6">
    <path d="M 50.87 26.88 
L 565.2 26.88 
" style="fill: none; stroke: #000000; stroke-width: 0.8; stroke-linejoin: miter; stroke-linecap: square"/>
   </g>
   <g id="text_19">
    <!-- DST Data (First 800 Samples) -->
    <g transform="translate(219.6025 20.88) scale(0.12 -0.12)">
     <defs>
      <path id="DejaVuSans-20" transform="scale(0.015625)"/>
      <path id="DejaVuSans-61" d="M 2194 1759 
Q 1497 1759 1228 1600 
Q 959 1441 959 1056 
Q 959 750 1161 570 
Q 1363 391 1709 391 
Q 2188 391 2477 730 
Q 2766 1069 2766 1631 
L 2766 1759 
L 2194 1759 
z
M 3341 1997 
L 3341 0 
L 2766 0 
L 2766 531 
Q 2569 213 2275 61 
Q 1981 -91 1556 -91 
Q 1019 -91 701 211 
Q 384 513 384 1019 
Q 384 1609 779 1909 
Q 1175 2209 1959 2209 
L 2766 2209 
L 2766 2266 
Q 2766 2663 2505 2880 
Q 2244 3097 1772 3097 
Q 1472 3097 1187 3025 
Q 903 2953 641 2809 
L 641 3341 
Q 956 3463 1253 3523 
Q 1550 3584 1831 3584 
Q 2591 3584 2966 3190 
Q 3341 2797 3341 1997 
z
" transform="scale(0.015625)"/>
      <path id="DejaVuSans-74" d="M 1172 4494 
L 1172 3500 
L 2356 3500 
L 2356 3053 
L 1172 3053 
L 1172 1153 
Q 1172 725 1289 603 
Q 1406 481 1766 481 
L 2356 481 
L 2356 0 
L 1766 0 
Q 1100 0 847 248 
Q 594 497 594 1153 
L 594 3053 
L 172 3053 
L 172 3500 
L 594 3500 
L 594 4494 
L 1172 4494 
z
" transform="scale(0.015625)"/>
      <path id="DejaVuSans-28" d="M 1984 4856 
Q 1566 4138 1362 3434 
Q 1159 2731 1159 2009 
Q 1159 1288 1364 580 
Q 1569 -128 1984 -844 
L 1484 -844 
Q 1016 -109 783 600 
Q 550 1309 550 2009 
Q 550 2706 781 3412 
Q 1013 4119 1484 4856 
L 1984 4856 
z
" transform="scale(0.015625)"/>
      <path id="DejaVuSans-46" d="M 628 4666 
L 3309 4666 
L 3309 4134 
L 1259 4134 
L 1259 2759 
L 3109 2759 
L 3109 2228 
L 1259 2228 
L 1259 0 
L 628 0 
L 628 4666 
z
" transform="scale(0.015625)"/>
      <path id="DejaVuSans-69" d="M 603 3500 
L 1178 3500 
L 1178 0 
L 603 0 
L 603 3500 
z
M 603 4863 
L 1178 4863 
L 1178 4134 
L 603 4134 
L 603 4863 
z
" transform="scale(0.015625)"/>
      <path id="DejaVuSans-72" d="M 2631 2963 
Q 2534 3019 2420 3045 
Q 2306 3072 2169 3072 
Q 1681 3072 1420 2755 
Q 1159 2438 1159 1844 
L 1159 0 
L 581 0 
L 581 3500 
L 1159 3500 
L 1159 2956 
Q 1341 3275 1631 3429 
Q 1922 3584 2338 3584 
Q 2397 3584 2469 3576 
Q 2541 3569 2628 3553 
L 2631 2963 
z
" transform="scale(0.015625)"/>
      <path id="DejaVuSans-73" d="M 2834 3397 
L 2834 2853 
Q 2591 2978 2328 3040 
Q 2066 3103 1784 3103 
Q 1356 3103 1142 2972 
Q 928 2841 928 2578 
Q 928 2378 1081 2264 
Q 1234 2150 1697 2047 
L 1894 2003 
Q 2506 1872 2764 1633 
Q 3022 1394 3022 966 
Q 3022 478 2636 193 
Q 2250 -91 1575 -91 
Q 1294 -91 989 -36 
Q 684 19 347 128 
L 347 722 
Q 666 556 975 473 
Q 1284 391 1588 391 
Q 1994 391 2212 530 
Q 2431 669 2431 922 
Q 2431 1156 2273 1281 
Q 2116 1406 1581 1522 
L 1381 1569 
Q 847 1681 609 1914 
Q 372 2147 372 2553 
Q 372 3047 722 3315 
Q 1072 3584 1716 3584 
Q 2034 3584 2315 3537 
Q 2597 3491 2834 3397 
z
" transform="scale(0.015625)"/>
      <path id="DejaVuSans-6d" d="M 3328 2828 
Q 3544 3216 3844 3400 
Q 4144 3584 4550 3584 
Q 5097 3584 5394 3201 
Q 5691 2819 5691 2113 
L 5691 0 
L 5113 0 
L 5113 2094 
Q 5113 2597 4934 2840 
Q 4756 3084 4391 3084 
Q 3944 3084 3684 2787 
Q 3425 2491 3425 1978 
L 3425 0 
L 2847 0 
L 2847 2094 
Q 2847 2600 2669 2842 
Q 2491 3084 2119 3084 
Q 1678 3084 1418 2786 
Q 1159 2488 1159 1978 
L 1159 0 
L 581 0 
L 581 3500 
L 1159 3500 
L 1159 2956 
Q 1356 3278 1631 3431 
Q 1906 3584 2284 3584 
Q 2666 3584 2933 3390 
Q 3200 3197 3328 2828 
z
" transform="scale(0.015625)"/>
      <path id="DejaVuSans-70" d="M 1159 525 
L 1159 -1331 
L 581 -1331 
L 581 3500 
L 1159 3500 
L 1159 2969 
Q 1341 3281 1617 3432 
Q 1894 3584 2278 3584 
Q 2916 3584 3314 3078 
Q 3713 2572 3713 1747 
Q 3713 922 3314 415 
Q 2916 -91 2278 -91 
Q 1894 -91 1617 61 
Q 1341 213 1159 525 
z
M 3116 1747 
Q 3116 2381 2855 2742 
Q 2594 3103 2138 3103 
Q 1681 3103 1420 2742 
Q 1159 2381 1159 1747 
Q 1159 1113 1420 752 
Q 1681 391 2138 391 
Q 2594 391 2855 752 
Q 3116 1113 3116 1747 
z
" transform="scale(0.015625)"/>
      <path id="DejaVuSans-6c" d="M 603 4863 
L 1178 4863 
L 1178 0 
L 603 0 
L 603 4863 
z
" transform="scale(0.015625)"/>
      <path id="DejaVuSans-29" d="M 513 4856 
L 1013 4856 
Q 1481 4119 1714 3412 
Q 1947 2706 1947 2009 
Q 1947 1309 1714 600 
Q 1481 -109 1013 -844 
L 513 -844 
Q 928 -128 1133 580 
Q 1338 1288 1338 2009 
Q 1338 2731 1133 3434 
Q 928 4138 513 4856 
z
" transform="scale(0.015625)"/>
     </defs>
     <use xlink:href="#DejaVuSans-44"/>
     <use xlink:href="#DejaVuSans-53" x="77.001953"/>
     <use xlink:href="#DejaVuSans-54" x="140.478516"/>
     <use xlink:href="#DejaVuSans-20" x="201.5625"/>
     <use xlink:href="#DejaVuSans-44" x="233.349609"/>
     <use xlink:href="#DejaVuSans-61" x="310.351562"/>
     <use xlink:href="#DejaVuSans-74" x="371.630859"/>
     <use xlink:href="#DejaVuSans-61" x="410.839844"/>
     <use xlink:href="#DejaVuSans-20" x="472.119141"/>
     <use xlink:href="#DejaVuSans-28" x="503.90625"/>
     <use xlink:href="#DejaVuSans-46" x="542.919922"/>
     <use xlink:href="#DejaVuSans-69" x="593.189453"/>
     <use xlink:href="#DejaVuSans-72" x="620.972656"/>
     <use xlink:href="#DejaVuSans-73" x="662.085938"/>
     <use xlink:href="#DejaVuSans-74" x="714.185547"/>
     <use xlink:href="#DejaVuSans-20" x="753.394531"/>
     <use xlink:href="#DejaVuSans-38" x="785.181641"/>
     <use xlink:href="#DejaVuSans-30" x="848.804688"/>
     <use xlink:href="#DejaVuSans-30" x="912.427734"/>
     <use xlink:href="#DejaVuSans-20" x="976.050781"/>
     <use xlink:href="#DejaVuSans-53" x="1007.837891"/>
     <use xlink:href="#DejaVuSans-61" x="1071.314453"/>
     <use xlink:href="#DejaVuSans-6d" x="1132.59375"/>
     <use xlink:href="#DejaVuSans-70" x="1230.005859"/>
     <use xlink:href="#DejaVuSans-6c" x="1293.482422"/>
     <use xlink:href="#DejaVuSans-65" x="1321.265625"/>
     <use xlink:href="#DejaVuSans-73" x="1382.789062"/>
     <use xlink:href="#DejaVuSans-29" x="1434.888672"/>
    </g>
   </g>
  </g>
  <g id="axes_2">
   <g id="patch_7">
    <path d="M 50.87 390.04 
L 565.2 390.04 
L 565.2 237.48 
L 50.87 237.48 
z
" style="fill: #ffffff"/>
   </g>
   <g id="matplotlib.axis_3">
    <g id="xtick_10">
     <g id="line2d_34">
      <path d="M 74.248636 390.04 
L 74.248636 237.48 
" clip-path="url(#pbcd5e387ad)" style="fill: none; stroke: #b0b0b0; stroke-width: 0.8; stroke-linecap: square"/>
     </g>
     <g id="line2d_35">
      <g>
       <use xlink:href="#mb49315f5ea" x="74.248636" y="390.04" style="stroke: #000000; stroke-width: 0.8"/>
      </g>
     </g>
     <g id="text_20">
      <!-- 0 -->
      <g transform="translate(71.067386 404.638437) scale(0.1 -0.1)">
       <use xlink:href="#DejaVuSans-30"/>
      </g>
     </g>
    </g>
    <g id="xtick_11">
     <g id="line2d_36">
      <path d="M 132.768377 390.04 
L 132.768377 237.48 
" clip-path="url(#pbcd5e387ad)" style="fill: none; stroke: #b0b0b0; stroke-width: 0.8; stroke-linecap: square"/>
     </g>
     <g id="line2d_37">
      <g>
       <use xlink:href="#mb49315f5ea" x="132.768377" y="390.04" style="stroke: #000000; stroke-width: 0.8"/>
      </g>
     </g>
     <g id="text_21">
      <!-- 100 -->
      <g transform="translate(123.224627 404.638437) scale(0.1 -0.1)">
       <use xlink:href="#DejaVuSans-31"/>
       <use xlink:href="#DejaVuSans-30" x="63.623047"/>
       <use xlink:href="#DejaVuSans-30" x="127.246094"/>
      </g>
     </g>
    </g>
    <g id="xtick_12">
     <g id="line2d_38">
      <path d="M 191.288118 390.04 
L 191.288118 237.48 
" clip-path="url(#pbcd5e387ad)" style="fill: none; stroke: #b0b0b0; stroke-width: 0.8; stroke-linecap: square"/>
     </g>
     <g id="line2d_39">
      <g>
       <use xlink:href="#mb49315f5ea" x="191.288118" y="390.04" style="stroke: #000000; stroke-width: 0.8"/>
      </g>
     </g>
     <g id="text_22">
      <!-- 200 -->
      <g transform="translate(181.744368 404.638437) scale(0.1 -0.1)">
       <use xlink:href="#DejaVuSans-32"/>
       <use xlink:href="#DejaVuSans-30" x="63.623047"/>
       <use xlink:href="#DejaVuSans-30" x="127.246094"/>
      </g>
     </g>
    </g>
    <g id="xtick_13">
     <g id="line2d_40">
      <path d="M 249.807858 390.04 
L 249.807858 237.48 
" clip-path="url(#pbcd5e387ad)" style="fill: none; stroke: #b0b0b0; stroke-width: 0.8; stroke-linecap: square"/>
     </g>
     <g id="line2d_41">
      <g>
       <use xlink:href="#mb49315f5ea" x="249.807858" y="390.04" style="stroke: #000000; stroke-width: 0.8"/>
      </g>
     </g>
     <g id="text_23">
      <!-- 300 -->
      <g transform="translate(240.264108 404.638437) scale(0.1 -0.1)">
       <use xlink:href="#DejaVuSans-33"/>
       <use xlink:href="#DejaVuSans-30" x="63.623047"/>
       <use xlink:href="#DejaVuSans-30" x="127.246094"/>
      </g>
     </g>
    </g>
    <g id="xtick_14">
     <g id="line2d_42">
      <path d="M 308.327599 390.04 
L 308.327599 237.48 
" clip-path="url(#pbcd5e387ad)" style="fill: none; stroke: #b0b0b0; stroke-width: 0.8; stroke-linecap: square"/>
     </g>
     <g id="line2d_43">
      <g>
       <use xlink:href="#mb49315f5ea" x="308.327599" y="390.04" style="stroke: #000000; stroke-width: 0.8"/>
      </g>
     </g>
     <g id="text_24">
      <!-- 400 -->
      <g transform="translate(298.783849 404.638437) scale(0.1 -0.1)">
       <use xlink:href="#DejaVuSans-34"/>
       <use xlink:href="#DejaVuSans-30" x="63.623047"/>
       <use xlink:href="#DejaVuSans-30" x="127.246094"/>
      </g>
     </g>
    </g>
    <g id="xtick_15">
     <g id="line2d_44">
      <path d="M 366.847339 390.04 
L 366.847339 237.48 
" clip-path="url(#pbcd5e387ad)" style="fill: none; stroke: #b0b0b0; stroke-width: 0.8; stroke-linecap: square"/>
     </g>
     <g id="line2d_45">
      <g>
       <use xlink:href="#mb49315f5ea" x="366.847339" y="390.04" style="stroke: #000000; stroke-width: 0.8"/>
      </g>
     </g>
     <g id="text_25">
      <!-- 500 -->
      <g transform="translate(357.303589 404.638437) scale(0.1 -0.1)">
       <use xlink:href="#DejaVuSans-35"/>
       <use xlink:href="#DejaVuSans-30" x="63.623047"/>
       <use xlink:href="#DejaVuSans-30" x="127.246094"/>
      </g>
     </g>
    </g>
    <g id="xtick_16">
     <g id="line2d_46">
      <path d="M 425.36708 390.04 
L 425.36708 237.48 
" clip-path="url(#pbcd5e387ad)" style="fill: none; stroke: #b0b0b0; stroke-width: 0.8; stroke-linecap: square"/>
     </g>
     <g id="line2d_47">
      <g>
       <use xlink:href="#mb49315f5ea" x="425.36708" y="390.04" style="stroke: #000000; stroke-width: 0.8"/>
      </g>
     </g>
     <g id="text_26">
      <!-- 600 -->
      <g transform="translate(415.82333 404.638437) scale(0.1 -0.1)">
       <use xlink:href="#DejaVuSans-36"/>
       <use xlink:href="#DejaVuSans-30" x="63.623047"/>
       <use xlink:href="#DejaVuSans-30" x="127.246094"/>
      </g>
     </g>
    </g>
    <g id="xtick_17">
     <g id="line2d_48">
      <path d="M 483.88682 390.04 
L 483.88682 237.48 
" clip-path="url(#pbcd5e387ad)" style="fill: none; stroke: #b0b0b0; stroke-width: 0.8; stroke-linecap: square"/>
     </g>
     <g id="line2d_49">
      <g>
       <use xlink:href="#mb49315f5ea" x="483.88682" y="390.04" style="stroke: #000000; stroke-width: 0.8"/>
      </g>
     </g>
     <g id="text_27">
      <!-- 700 -->
      <g transform="translate(474.34307 404.638437) scale(0.1 -0.1)">
       <use xlink:href="#DejaVuSans-37"/>
       <use xlink:href="#DejaVuSans-30" x="63.623047"/>
       <use xlink:href="#DejaVuSans-30" x="127.246094"/>
      </g>
     </g>
    </g>
    <g id="xtick_18">
     <g id="line2d_50">
      <path d="M 542.406561 390.04 
L 542.406561 237.48 
" clip-path="url(#pbcd5e387ad)" style="fill: none; stroke: #b0b0b0; stroke-width: 0.8; stroke-linecap: square"/>
     </g>
     <g id="line2d_51">
      <g>
       <use xlink:href="#mb49315f5ea" x="542.406561" y="390.04" style="stroke: #000000; stroke-width: 0.8"/>
      </g>
     </g>
     <g id="text_28">
      <!-- 800 -->
      <g transform="translate(532.862811 404.638437) scale(0.1 -0.1)">
       <use xlink:href="#DejaVuSans-38"/>
       <use xlink:href="#DejaVuSans-30" x="63.623047"/>
       <use xlink:href="#DejaVuSans-30" x="127.246094"/>
      </g>
     </g>
    </g>
    <g id="text_29">
     <!-- Index -->
     <g transform="translate(294.268594 418.316562) scale(0.1 -0.1)">
      <use xlink:href="#DejaVuSans-49"/>
      <use xlink:href="#DejaVuSans-6e" x="29.492188"/>
      <use xlink:href="#DejaVuSans-64" x="92.871094"/>
      <use xlink:href="#DejaVuSans-65" x="156.347656"/>
      <use xlink:href="#DejaVuSans-78" x="216.121094"/>
     </g>
    </g>
   </g>
   <g id="matplotlib.axis_4">
    <g id="ytick_8">
     <g id="line2d_52">
      <path d="M 50.87 383.105455 
L 565.2 383.105455 
" clip-path="url(#pbcd5e387ad)" style="fill: none; stroke: #b0b0b0; stroke-width: 0.8; stroke-linecap: square"/>
     </g>
     <g id="line2d_53">
      <g>
       <use xlink:href="#m3dcdca9d41" x="50.87" y="383.105455" style="stroke: #000000; stroke-width: 0.8"/>
      </g>
     </g>
     <g id="text_30">
      <!-- 0 -->
      <g transform="translate(37.5075 386.904673) scale(0.1 -0.1)">
       <use xlink:href="#DejaVuSans-30"/>
      </g>
     </g>
    </g>
    <g id="ytick_9">
     <g id="line2d_54">
      <path d="M 50.87 354.211515 
L 565.2 354.211515 
" clip-path="url(#pbcd5e387ad)" style="fill: none; stroke: #b0b0b0; stroke-width: 0.8; stroke-linecap: square"/>
     </g>
     <g id="line2d_55">
      <g>
       <use xlink:href="#m3dcdca9d41" x="50.87" y="354.211515" style="stroke: #000000; stroke-width: 0.8"/>
      </g>
     </g>
     <g id="text_31">
      <!-- 50 -->
      <g transform="translate(31.145 358.010734) scale(0.1 -0.1)">
       <use xlink:href="#DejaVuSans-35"/>
       <use xlink:href="#DejaVuSans-30" x="63.623047"/>
      </g>
     </g>
    </g>
    <g id="ytick_10">
     <g id="line2d_56">
      <path d="M 50.87 325.317576 
L 565.2 325.317576 
" clip-path="url(#pbcd5e387ad)" style="fill: none; stroke: #b0b0b0; stroke-width: 0.8; stroke-linecap: square"/>
     </g>
     <g id="line2d_57">
      <g>
       <use xlink:href="#m3dcdca9d41" x="50.87" y="325.317576" style="stroke: #000000; stroke-width: 0.8"/>
      </g>
     </g>
     <g id="text_32">
      <!-- 100 -->
      <g transform="translate(24.7825 329.116795) scale(0.1 -0.1)">
       <use xlink:href="#DejaVuSans-31"/>
       <use xlink:href="#DejaVuSans-30" x="63.623047"/>
       <use xlink:href="#DejaVuSans-30" x="127.246094"/>
      </g>
     </g>
    </g>
    <g id="ytick_11">
     <g id="line2d_58">
      <path d="M 50.87 296.423636 
L 565.2 296.423636 
" clip-path="url(#pbcd5e387ad)" style="fill: none; stroke: #b0b0b0; stroke-width: 0.8; stroke-linecap: square"/>
     </g>
     <g id="line2d_59">
      <g>
       <use xlink:href="#m3dcdca9d41" x="50.87" y="296.423636" style="stroke: #000000; stroke-width: 0.8"/>
      </g>
     </g>
     <g id="text_33">
      <!-- 150 -->
      <g transform="translate(24.7825 300.222855) scale(0.1 -0.1)">
       <use xlink:href="#DejaVuSans-31"/>
       <use xlink:href="#DejaVuSans-35" x="63.623047"/>
       <use xlink:href="#DejaVuSans-30" x="127.246094"/>
      </g>
     </g>
    </g>
    <g id="ytick_12">
     <g id="line2d_60">
      <path d="M 50.87 267.529697 
L 565.2 267.529697 
" clip-path="url(#pbcd5e387ad)" style="fill: none; stroke: #b0b0b0; stroke-width: 0.8; stroke-linecap: square"/>
     </g>
     <g id="line2d_61">
      <g>
       <use xlink:href="#m3dcdca9d41" x="50.87" y="267.529697" style="stroke: #000000; stroke-width: 0.8"/>
      </g>
     </g>
     <g id="text_34">
      <!-- 200 -->
      <g transform="translate(24.7825 271.328916) scale(0.1 -0.1)">
       <use xlink:href="#DejaVuSans-32"/>
       <use xlink:href="#DejaVuSans-30" x="63.623047"/>
       <use xlink:href="#DejaVuSans-30" x="127.246094"/>
      </g>
     </g>
    </g>
    <g id="ytick_13">
     <g id="line2d_62">
      <path d="M 50.87 238.635758 
L 565.2 238.635758 
" clip-path="url(#pbcd5e387ad)" style="fill: none; stroke: #b0b0b0; stroke-width: 0.8; stroke-linecap: square"/>
     </g>
     <g id="line2d_63">
      <g>
       <use xlink:href="#m3dcdca9d41" x="50.87" y="238.635758" style="stroke: #000000; stroke-width: 0.8"/>
      </g>
     </g>
     <g id="text_35">
      <!-- 250 -->
      <g transform="translate(24.7825 242.434976) scale(0.1 -0.1)">
       <use xlink:href="#DejaVuSans-32"/>
       <use xlink:href="#DejaVuSans-35" x="63.623047"/>
       <use xlink:href="#DejaVuSans-30" x="127.246094"/>
      </g>
     </g>
    </g>
    <g id="text_36">
     <!-- ID -->
     <g transform="translate(18.702813 319.085) rotate(-90) scale(0.1 -0.1)">
      <use xlink:href="#DejaVuSans-49"/>
      <use xlink:href="#DejaVuSans-44" x="29.492188"/>
     </g>
    </g>
   </g>
   <g id="line2d_64">
    <path d="M 74.248636 254.816364 
L 74.833834 254.816364 
L 75.419031 383.105455 
L 76.004229 383.105455 
L 76.589426 381.371818 
L 77.174623 380.793939 
L 77.759821 378.482424 
L 78.345018 381.371818 
L 78.930216 378.482424 
L 79.515413 381.371818 
L 80.10061 379.060303 
L 80.685808 379.060303 
L 81.271005 378.482424 
L 81.856203 381.371818 
L 82.4414 381.371818 
L 83.026597 380.793939 
L 83.611795 381.371818 
L 84.196992 380.793939 
L 84.78219 383.105455 
L 85.367387 383.105455 
L 85.952584 381.371818 
L 88.293374 381.371818 
L 88.878572 383.105455 
L 89.463769 378.482424 
L 90.048966 382.527576 
L 91.219361 382.527576 
L 91.804559 378.482424 
L 92.389756 382.527576 
L 93.560151 382.527576 
L 94.145348 381.949697 
L 95.315743 381.949697 
L 95.90094 244.414545 
L 98.826927 244.414545 
L 99.412125 383.105455 
L 99.997322 383.105455 
L 100.58252 381.371818 
L 101.167717 380.793939 
L 101.752914 378.482424 
L 102.338112 381.371818 
L 102.923309 381.371818 
L 103.508507 379.060303 
L 104.093704 379.060303 
L 104.678901 378.482424 
L 105.264099 378.482424 
L 105.849296 381.371818 
L 106.434494 381.371818 
L 107.019691 380.793939 
L 107.604888 381.371818 
L 108.190086 380.793939 
L 108.775283 383.105455 
L 109.360481 383.105455 
L 109.945678 382.527576 
L 110.530876 382.527576 
L 111.116073 381.371818 
L 111.70127 382.527576 
L 112.286468 381.371818 
L 112.871665 381.371818 
L 113.456863 383.105455 
L 114.04206 378.482424 
L 114.627257 382.527576 
L 115.797652 382.527576 
L 116.38285 378.482424 
L 116.968047 382.527576 
L 118.138442 382.527576 
L 118.723639 381.949697 
L 119.894034 381.949697 
L 120.479231 244.414545 
L 123.405218 244.414545 
L 123.990416 383.105455 
L 124.575613 383.105455 
L 125.160811 381.371818 
L 125.746008 380.793939 
L 126.331205 378.482424 
L 126.916403 381.371818 
L 127.5016 381.371818 
L 128.086798 379.060303 
L 128.671995 379.060303 
L 129.257193 378.482424 
L 129.84239 378.482424 
L 130.427587 381.371818 
L 131.012785 380.793939 
L 131.597982 381.371818 
L 132.18318 381.371818 
L 132.768377 380.793939 
L 133.353574 383.105455 
L 133.938772 383.105455 
L 134.523969 381.371818 
L 135.694364 381.371818 
L 136.279561 383.105455 
L 136.864759 382.527576 
L 137.449956 378.482424 
L 138.035154 382.527576 
L 138.620351 382.527576 
L 139.205548 378.482424 
L 139.790746 382.527576 
L 140.961141 382.527576 
L 141.546338 381.949697 
L 142.716733 381.949697 
L 143.30193 244.414545 
L 146.227917 244.414545 
L 146.813115 383.105455 
L 147.398312 383.105455 
L 147.98351 378.482424 
L 148.568707 381.949697 
L 149.739102 380.793939 
L 150.324299 381.949697 
L 150.909497 381.371818 
L 151.494694 381.949697 
L 152.079891 379.060303 
L 152.665089 379.060303 
L 153.250286 378.482424 
L 153.835484 378.482424 
L 154.420681 381.949697 
L 155.005878 381.949697 
L 155.591076 381.371818 
L 156.761471 381.371818 
L 157.346668 380.793939 
L 157.931865 381.949697 
L 159.10226 380.793939 
L 160.272655 383.105455 
L 160.857852 383.105455 
L 161.44305 381.371818 
L 162.613445 381.371818 
L 163.198642 383.105455 
L 163.783839 378.482424 
L 164.369037 382.527576 
L 165.539432 382.527576 
L 166.124629 378.482424 
L 166.709826 382.527576 
L 167.880221 382.527576 
L 168.465419 381.949697 
L 169.050616 381.949697 
L 169.635814 244.414545 
L 172.561801 244.414545 
L 173.146998 383.105455 
L 173.732195 383.105455 
L 174.317393 381.371818 
L 174.90259 380.793939 
L 175.487788 378.482424 
L 176.072985 381.371818 
L 176.658182 381.371818 
L 177.24338 379.060303 
L 177.828577 379.060303 
L 178.413775 378.482424 
L 178.998972 378.482424 
L 179.584169 381.371818 
L 180.169367 380.793939 
L 180.754564 381.371818 
L 181.339762 380.793939 
L 181.924959 381.371818 
L 182.510156 383.105455 
L 183.095354 383.105455 
L 183.680551 381.371818 
L 184.265749 381.371818 
L 184.850946 381.949697 
L 185.436143 378.482424 
L 186.021341 382.527576 
L 187.191736 382.527576 
L 187.776933 378.482424 
L 188.362131 382.527576 
L 189.532525 382.527576 
L 190.117723 244.414545 
L 193.04371 244.414545 
L 193.628907 383.105455 
L 194.214105 383.105455 
L 194.799302 381.371818 
L 195.384499 380.793939 
L 195.969697 378.482424 
L 196.554894 381.371818 
L 197.140092 379.060303 
L 197.725289 378.482424 
L 198.310486 378.482424 
L 198.895684 381.371818 
L 199.480881 379.060303 
L 200.066079 381.371818 
L 200.651276 381.371818 
L 201.236473 380.793939 
L 201.821671 381.371818 
L 202.406868 380.793939 
L 202.992066 383.105455 
L 203.577263 383.105455 
L 204.16246 381.371818 
L 205.918053 381.371818 
L 206.50325 381.949697 
L 207.088447 378.482424 
L 207.673645 382.527576 
L 208.84404 382.527576 
L 209.429237 378.482424 
L 210.014435 382.527576 
L 211.184829 382.527576 
L 211.770027 244.414545 
L 214.696014 244.414545 
L 215.281211 383.105455 
L 215.866409 383.105455 
L 216.451606 381.371818 
L 217.036803 380.793939 
L 217.622001 378.482424 
L 218.207198 381.371818 
L 218.792396 381.371818 
L 219.377593 379.060303 
L 219.96279 379.060303 
L 220.547988 378.482424 
L 221.133185 378.482424 
L 221.718383 381.371818 
L 222.30358 381.371818 
L 222.888777 380.793939 
L 223.473975 380.793939 
L 224.059172 381.371818 
L 224.64437 383.105455 
L 225.229567 383.105455 
L 225.814764 381.371818 
L 226.985159 381.371818 
L 227.570357 381.949697 
L 228.155554 378.482424 
L 228.740752 382.527576 
L 229.911146 382.527576 
L 230.496344 378.482424 
L 231.081541 382.527576 
L 232.251936 382.527576 
L 232.837133 244.414545 
L 235.76312 244.414545 
L 236.348318 383.105455 
L 236.933515 383.105455 
L 237.518713 381.371818 
L 238.10391 380.793939 
L 238.689107 378.482424 
L 239.274305 381.371818 
L 239.859502 381.371818 
L 240.4447 379.060303 
L 241.029897 379.060303 
L 241.615094 378.482424 
L 242.200292 378.482424 
L 242.785489 381.371818 
L 243.370687 381.371818 
L 243.955884 380.793939 
L 244.541081 381.371818 
L 245.126279 380.793939 
L 245.711476 383.105455 
L 246.296674 383.105455 
L 246.881871 381.371818 
L 248.052266 381.371818 
L 248.637463 381.949697 
L 249.222661 378.482424 
L 249.807858 382.527576 
L 250.978253 382.527576 
L 251.56345 378.482424 
L 252.148648 382.527576 
L 253.319043 382.527576 
L 253.90424 244.414545 
L 256.830227 244.414545 
L 257.415424 383.105455 
L 258.000622 383.105455 
L 258.585819 381.371818 
L 259.171017 380.793939 
L 259.756214 378.482424 
L 260.341411 381.371818 
L 260.926609 381.371818 
L 261.511806 379.060303 
L 262.097004 379.060303 
L 262.682201 378.482424 
L 263.267398 378.482424 
L 263.852596 381.371818 
L 264.437793 381.371818 
L 265.022991 380.793939 
L 265.608188 380.793939 
L 266.193385 381.371818 
L 266.778583 383.105455 
L 267.36378 383.105455 
L 267.948978 381.371818 
L 269.119373 381.371818 
L 269.70457 381.949697 
L 270.289767 378.482424 
L 270.874965 382.527576 
L 272.04536 382.527576 
L 272.630557 378.482424 
L 273.215754 382.527576 
L 274.386149 382.527576 
L 274.971347 244.414545 
L 277.897334 244.414545 
L 278.482531 383.105455 
L 279.067728 383.105455 
L 279.652926 381.371818 
L 280.238123 380.793939 
L 280.823321 378.482424 
L 281.408518 381.371818 
L 281.993715 381.371818 
L 282.578913 379.060303 
L 283.16411 379.060303 
L 283.749308 378.482424 
L 284.334505 378.482424 
L 284.919702 381.371818 
L 285.5049 380.793939 
L 286.090097 381.371818 
L 286.675295 381.371818 
L 287.260492 380.793939 
L 287.845689 383.105455 
L 288.430887 383.105455 
L 289.016084 382.527576 
L 289.601282 382.527576 
L 290.186479 381.371818 
L 290.771677 382.527576 
L 291.356874 381.371818 
L 291.942071 381.371818 
L 293.112466 382.527576 
L 294.282861 382.527576 
L 294.868058 378.482424 
L 295.453256 382.527576 
L 299.549638 382.527576 
L 300.134835 378.482424 
L 300.720032 382.527576 
L 303.060822 382.527576 
L 303.646019 244.414545 
L 306.572006 244.414545 
L 307.157204 383.105455 
L 307.742401 383.105455 
L 308.327599 381.371818 
L 308.912796 380.793939 
L 309.497994 378.482424 
L 310.083191 381.371818 
L 310.668388 379.060303 
L 311.253586 378.482424 
L 311.838783 378.482424 
L 312.423981 381.371818 
L 313.009178 379.060303 
L 313.594375 381.371818 
L 314.179573 381.371818 
L 314.76477 380.793939 
L 315.349968 380.793939 
L 315.935165 381.371818 
L 316.520362 383.105455 
L 317.10556 383.105455 
L 317.690757 381.371818 
L 318.861152 381.371818 
L 319.446349 381.949697 
L 320.031547 378.482424 
L 320.616744 382.527576 
L 321.787139 382.527576 
L 322.372336 378.482424 
L 322.957534 382.527576 
L 324.127929 382.527576 
L 324.713126 244.414545 
L 327.639113 244.414545 
L 328.224311 383.105455 
L 328.809508 383.105455 
L 329.394705 381.371818 
L 329.979903 380.793939 
L 330.5651 378.482424 
L 331.150298 381.949697 
L 331.735495 381.949697 
L 332.320692 381.371818 
L 332.90589 381.949697 
L 333.491087 381.949697 
L 334.076285 381.371818 
L 334.661482 379.060303 
L 335.246679 379.060303 
L 335.831877 378.482424 
L 336.417074 378.482424 
L 337.002272 381.949697 
L 337.587469 381.371818 
L 338.172666 381.949697 
L 339.343061 380.793939 
L 339.928259 381.371818 
L 340.513456 380.793939 
L 341.683851 383.105455 
L 342.269048 383.105455 
L 342.854246 381.371818 
L 344.02464 381.371818 
L 344.609838 381.949697 
L 345.195035 378.482424 
L 345.780233 382.527576 
L 346.950627 382.527576 
L 347.535825 378.482424 
L 348.121022 382.527576 
L 349.291417 382.527576 
L 349.876615 244.414545 
L 352.802602 244.414545 
L 353.387799 383.105455 
L 353.972996 383.105455 
L 354.558194 381.371818 
L 355.143391 380.793939 
L 355.728589 378.482424 
L 356.313786 381.371818 
L 356.898983 381.371818 
L 357.484181 379.060303 
L 358.069378 379.060303 
L 358.654576 378.482424 
L 359.239773 378.482424 
L 359.82497 381.371818 
L 360.410168 381.371818 
L 360.995365 380.793939 
L 361.580563 381.371818 
L 362.16576 380.793939 
L 362.750957 383.105455 
L 363.336155 383.105455 
L 363.921352 381.371818 
L 365.091747 381.371818 
L 365.676944 381.949697 
L 366.262142 378.482424 
L 366.847339 382.527576 
L 368.017734 382.527576 
L 368.602932 378.482424 
L 369.188129 382.527576 
L 370.358524 382.527576 
L 370.943721 244.414545 
L 373.869708 244.414545 
L 374.454906 383.105455 
L 375.040103 383.105455 
L 375.6253 381.371818 
L 376.210498 380.793939 
L 376.795695 378.482424 
L 377.380893 381.371818 
L 377.96609 381.371818 
L 378.551287 379.060303 
L 379.136485 379.060303 
L 379.721682 378.482424 
L 380.30688 378.482424 
L 380.892077 381.371818 
L 381.477274 381.371818 
L 382.062472 380.793939 
L 382.647669 381.371818 
L 383.232867 380.793939 
L 383.818064 383.105455 
L 384.403261 383.105455 
L 384.988459 381.371818 
L 386.158854 381.371818 
L 386.744051 381.949697 
L 387.329248 378.482424 
L 387.914446 382.527576 
L 389.084841 382.527576 
L 389.670038 378.482424 
L 390.255236 382.527576 
L 391.42563 382.527576 
L 392.010828 244.414545 
L 394.936815 244.414545 
L 395.522012 383.105455 
L 396.10721 383.105455 
L 396.692407 381.371818 
L 397.277604 380.793939 
L 397.862802 378.482424 
L 398.447999 381.371818 
L 399.033197 381.371818 
L 399.618394 379.060303 
L 400.203591 379.060303 
L 400.788789 378.482424 
L 401.373986 378.482424 
L 401.959184 381.371818 
L 402.544381 381.371818 
L 403.129578 380.793939 
L 403.714776 381.371818 
L 404.299973 380.793939 
L 404.885171 383.105455 
L 405.470368 383.105455 
L 406.055565 381.371818 
L 406.640763 381.371818 
L 407.811158 382.527576 
L 408.396355 378.482424 
L 408.981553 382.527576 
L 409.56675 382.527576 
L 410.151947 378.482424 
L 410.737145 382.527576 
L 411.90754 382.527576 
L 412.492737 244.414545 
L 415.418724 244.414545 
L 416.003921 383.105455 
L 416.589119 383.105455 
L 417.174316 381.371818 
L 417.759514 380.793939 
L 418.344711 378.482424 
L 418.929908 381.371818 
L 419.515106 379.060303 
L 420.100303 379.060303 
L 420.685501 378.482424 
L 421.270698 378.482424 
L 421.855895 381.371818 
L 423.02629 381.371818 
L 423.611488 380.793939 
L 424.196685 381.371818 
L 424.781882 380.793939 
L 425.36708 383.105455 
L 425.952277 383.105455 
L 426.537475 381.371818 
L 428.293067 381.371818 
L 428.878264 381.949697 
L 429.463462 378.482424 
L 430.048659 382.527576 
L 431.219054 382.527576 
L 431.804251 378.482424 
L 432.389449 382.527576 
L 433.559844 382.527576 
L 434.145041 244.414545 
L 437.071028 244.414545 
L 437.656225 383.105455 
L 438.241423 383.105455 
L 438.82662 381.371818 
L 439.411818 380.793939 
L 439.997015 378.482424 
L 440.582212 381.371818 
L 441.16741 381.371818 
L 441.752607 379.060303 
L 442.337805 379.060303 
L 442.923002 378.482424 
L 443.508199 378.482424 
L 444.093397 381.371818 
L 444.678594 380.793939 
L 445.263792 381.371818 
L 445.848989 381.371818 
L 446.434186 380.793939 
L 447.019384 383.105455 
L 447.604581 383.105455 
L 448.189779 381.371818 
L 449.360174 381.371818 
L 449.945371 381.949697 
L 450.530568 378.482424 
L 451.115766 382.527576 
L 452.286161 382.527576 
L 452.871358 378.482424 
L 453.456555 382.527576 
L 454.62695 382.527576 
L 455.212148 244.414545 
L 458.138135 244.414545 
L 458.723332 383.105455 
L 459.308529 383.105455 
L 459.893727 381.371818 
L 460.478924 380.793939 
L 461.064122 378.482424 
L 461.649319 381.371818 
L 462.234516 381.371818 
L 462.819714 379.060303 
L 463.404911 379.060303 
L 463.990109 378.482424 
L 464.575306 378.482424 
L 465.160503 381.371818 
L 465.745701 381.371818 
L 466.330898 380.793939 
L 466.916096 381.371818 
L 467.501293 380.793939 
L 468.08649 383.105455 
L 468.671688 383.105455 
L 469.256885 381.371818 
L 469.842083 382.527576 
L 470.42728 382.527576 
L 471.012478 381.371818 
L 471.597675 382.527576 
L 472.182872 381.371818 
L 472.76807 381.949697 
L 473.353267 378.482424 
L 473.938465 382.527576 
L 475.108859 382.527576 
L 475.694057 378.482424 
L 476.279254 382.527576 
L 477.449649 382.527576 
L 478.034846 381.949697 
L 479.205241 381.949697 
L 479.790439 244.414545 
L 482.716426 244.414545 
L 483.301623 383.105455 
L 483.88682 383.105455 
L 484.472018 381.371818 
L 485.057215 380.793939 
L 485.642413 378.482424 
L 486.22761 381.371818 
L 486.812807 381.371818 
L 487.398005 379.060303 
L 487.983202 379.060303 
L 488.5684 378.482424 
L 489.153597 378.482424 
L 489.738795 381.371818 
L 490.323992 381.371818 
L 490.909189 380.793939 
L 491.494387 381.371818 
L 492.079584 380.793939 
L 492.664782 383.105455 
L 493.835176 383.105455 
L 494.420374 381.371818 
L 496.175966 381.371818 
L 496.761163 383.105455 
L 497.346361 378.482424 
L 497.931558 382.527576 
L 499.68715 382.527576 
L 500.272348 378.482424 
L 500.857545 382.527576 
L 501.442743 382.527576 
L 502.02794 381.949697 
L 503.198335 381.949697 
L 503.783532 244.414545 
L 506.709519 244.414545 
L 507.294717 383.105455 
L 507.879914 383.105455 
L 508.465112 381.371818 
L 509.050309 380.793939 
L 509.635506 378.482424 
L 510.220704 381.949697 
L 510.805901 381.949697 
L 511.391099 381.371818 
L 511.976296 381.949697 
L 512.561493 381.949697 
L 513.146691 381.371818 
L 513.731888 379.060303 
L 514.317086 379.060303 
L 514.902283 378.482424 
L 515.48748 378.482424 
L 516.072678 381.949697 
L 516.657875 381.371818 
L 517.243073 381.371818 
L 517.82827 380.793939 
L 518.413467 381.949697 
L 518.998665 381.949697 
L 520.16906 380.793939 
L 520.754257 383.105455 
L 521.339454 383.105455 
L 521.924652 381.371818 
L 523.680244 381.371818 
L 524.265441 383.105455 
L 524.850639 378.482424 
L 525.435836 382.527576 
L 526.606231 382.527576 
L 527.191428 378.482424 
L 527.776626 382.527576 
L 528.947021 382.527576 
L 529.532218 381.949697 
L 530.702613 381.949697 
L 531.28781 244.414545 
L 534.213797 244.414545 
L 534.798995 383.105455 
L 535.384192 383.105455 
L 535.96939 378.482424 
L 536.554587 381.371818 
L 537.139784 380.793939 
L 537.724982 381.371818 
L 538.310179 379.060303 
L 538.895377 379.060303 
L 539.480574 378.482424 
L 540.065771 378.482424 
L 540.650969 381.371818 
L 541.821364 381.371818 
L 541.821364 381.371818 
" clip-path="url(#pbcd5e387ad)" style="fill: none; stroke-dasharray: 9.6,2.4,1.5,2.4; stroke-dashoffset: 0; stroke: #ff7f50; stroke-width: 1.5"/>
   </g>
   <g id="patch_8">
    <path d="M 50.87 390.04 
L 50.87 237.48 
" style="fill: none; stroke: #000000; stroke-width: 0.8; stroke-linejoin: miter; stroke-linecap: square"/>
   </g>
   <g id="patch_9">
    <path d="M 565.2 390.04 
L 565.2 237.48 
" style="fill: none; stroke: #000000; stroke-width: 0.8; stroke-linejoin: miter; stroke-linecap: square"/>
   </g>
   <g id="patch_10">
    <path d="M 50.87 390.04 
L 565.2 390.04 
" style="fill: none; stroke: #000000; stroke-width: 0.8; stroke-linejoin: miter; stroke-linecap: square"/>
   </g>
   <g id="patch_11">
    <path d="M 50.87 237.48 
L 565.2 237.48 
" style="fill: none; stroke: #000000; stroke-width: 0.8; stroke-linejoin: miter; stroke-linecap: square"/>
   </g>
   <g id="text_37">
    <!-- ID Data (First 800 Samples) -->
    <g transform="translate(225.30625 231.48) scale(0.12 -0.12)">
     <use xlink:href="#DejaVuSans-49"/>
     <use xlink:href="#DejaVuSans-44" x="29.492188"/>
     <use xlink:href="#DejaVuSans-20" x="106.494141"/>
     <use xlink:href="#DejaVuSans-44" x="138.28125"/>
     <use xlink:href="#DejaVuSans-61" x="215.283203"/>
     <use xlink:href="#DejaVuSans-74" x="276.5625"/>
     <use xlink:href="#DejaVuSans-61" x="315.771484"/>
     <use xlink:href="#DejaVuSans-20" x="377.050781"/>
     <use xlink:href="#DejaVuSans-28" x="408.837891"/>
     <use xlink:href="#DejaVuSans-46" x="447.851562"/>
     <use xlink:href="#DejaVuSans-69" x="498.121094"/>
     <use xlink:href="#DejaVuSans-72" x="525.904297"/>
     <use xlink:href="#DejaVuSans-73" x="567.017578"/>
     <use xlink:href="#DejaVuSans-74" x="619.117188"/>
     <use xlink:href="#DejaVuSans-20" x="658.326172"/>
     <use xlink:href="#DejaVuSans-38" x="690.113281"/>
     <use xlink:href="#DejaVuSans-30" x="753.736328"/>
     <use xlink:href="#DejaVuSans-30" x="817.359375"/>
     <use xlink:href="#DejaVuSans-20" x="880.982422"/>
     <use xlink:href="#DejaVuSans-53" x="912.769531"/>
     <use xlink:href="#DejaVuSans-61" x="976.246094"/>
     <use xlink:href="#DejaVuSans-6d" x="1037.525391"/>
     <use xlink:href="#DejaVuSans-70" x="1134.9375"/>
     <use xlink:href="#DejaVuSans-6c" x="1198.414062"/>
     <use xlink:href="#DejaVuSans-65" x="1226.197266"/>
     <use xlink:href="#DejaVuSans-73" x="1287.720703"/>
     <use xlink:href="#DejaVuSans-29" x="1339.820312"/>
    </g>
   </g>
  </g>
 </g>
 <defs>
  <clipPath id="p7a6ea8fe24">
   <rect x="50.87" y="26.88" width="514.33" height="152.56"/>
  </clipPath>
  <clipPath id="pbcd5e387ad">
   <rect x="50.87" y="237.48" width="514.33" height="152.56"/>
  </clipPath>
 </defs>
</svg>
